<?xml version="1.0" encoding="UTF-8" standalone="no"?>
<svg
   xmlns:dc="http://purl.org/dc/elements/1.1/"
   xmlns:cc="http://creativecommons.org/ns#"
   xmlns:rdf="http://www.w3.org/1999/02/22-rdf-syntax-ns#"
   xmlns:svg="http://www.w3.org/2000/svg"
   xmlns="http://www.w3.org/2000/svg"
   xmlns:sodipodi="http://sodipodi.sourceforge.net/DTD/sodipodi-0.dtd"
   xmlns:inkscape="http://www.inkscape.org/namespaces/inkscape"
   viewBox="0 0 143.99999 144"
   version="1.1"
   id="svg44"
   sodipodi:docname="logo_ets_red_centered.svg"
   width="144"
   height="144"
   inkscape:version="0.92.4 (5da689c313, 2019-01-14)">
  <metadata
     id="metadata48">
    <rdf:RDF>
      <cc:Work
         rdf:about="">
        <dc:format>image/svg+xml</dc:format>
        <dc:type
           rdf:resource="http://purl.org/dc/dcmitype/StillImage" />
        <dc:title></dc:title>
      </cc:Work>
    </rdf:RDF>
  </metadata>
  <sodipodi:namedview
     pagecolor="#ffffff"
     bordercolor="#666666"
     borderopacity="1"
     objecttolerance="10"
     gridtolerance="10"
     guidetolerance="10"
     inkscape:pageopacity="0"
     inkscape:pageshadow="2"
     inkscape:window-width="1280"
     inkscape:window-height="961"
     id="namedview46"
     showgrid="false"
     inkscape:zoom="1.0028248"
     inkscape:cx="2.4000061"
     inkscape:cy="72"
     inkscape:window-x="-8"
     inkscape:window-y="46"
     inkscape:window-maximized="1"
     inkscape:current-layer="svg44" />
  <defs
     id="defs30">
    <style
       id="style2">.cls-3{fill:#fff}</style>
    <linearGradient
       id="linear-gradient"
       x1="224.7"
       x2="231.3"
       y1="97"
       y2="97"
       gradientUnits="userSpaceOnUse"
       gradientTransform="translate(-188.8,-27)">
      <stop
         offset="0"
         stop-color="#fff"
         id="stop4" />
      <stop
         offset="1"
         stop-color="#fff"
         stop-opacity="0"
         id="stop6" />
    </linearGradient>
    <linearGradient
       id="linear-gradient-2"
       x1="237"
       x2="282.39999"
       y1="95.300003"
       y2="92"
       gradientTransform="translate(-187.6,-22)"
       gradientUnits="userSpaceOnUse">
      <stop
         offset="0"
         stop-color="#fff"
         stop-opacity="0"
         id="stop9" />
      <stop
         offset=".1"
         stop-color="#fff"
         stop-opacity=".1"
         id="stop11" />
      <stop
         offset=".2"
         stop-color="#fff"
         stop-opacity=".3"
         id="stop13" />
      <stop
         offset=".3"
         stop-color="#fff"
         stop-opacity=".5"
         id="stop15" />
      <stop
         offset=".4"
         stop-color="#fff"
         stop-opacity=".7"
         id="stop17" />
      <stop
         offset=".5"
         stop-color="#fff"
         stop-opacity=".8"
         id="stop19" />
      <stop
         offset=".6"
         stop-color="#fff"
         stop-opacity=".9"
         id="stop21" />
      <stop
         offset=".7"
         stop-color="#fff"
         stop-opacity=".9"
         id="stop23" />
      <stop
         offset=".8"
         stop-color="#fff"
         id="stop25" />
      <stop
         offset="1"
         stop-color="#fff"
         id="stop27" />
    </linearGradient>
  </defs>
  <path
     d="M 0,0 H 144 V 144 H 0 Z"
     id="path32"
     inkscape:connector-curvature="0"
     style="fill:#ef3730" />
  <path
     d="m 16.2,66 c 0.2,3.2 6.2,6 15.6,7.2 a 59.8,59.8 0 0 0 6.3,0.6 L 42.5,74 V 73.3 L 37.6,73.1 A 40,40 0 0 1 33,72.7 C 22.6,71.4 17.2,68.4 17,66 Z"
     id="path34"
     inkscape:connector-curvature="0"
     style="fill:url(#linear-gradient)" />
  <path
     d="m 125.6,59 c -0.1,-3 -5.8,-5 -17,-6.3 A 176.4,176.4 0 0 0 89.8,51.8 C 83.6,51.8 77,52 70.2,52.5 A 250.9,250.9 0 0 0 35.9,57 l -2.5,0.6 -1.3,0.4 c -7.3,1.7 -16,4.6 -15.8,8 h 0.8 C 17,63.8 22.6,61 32.3,58.7 l 2.3,-0.5 1.5,-0.3 a 251.8,251.8 0 0 1 34.2,-4.2 c 6.1,-0.4 12.2,-0.6 18,-0.6 a 187.6,187.6 0 0 1 20.1,1 c 11.2,1.2 15.2,3.4 15.3,5 z"
     class="cls-3"
     id="path36"
     inkscape:connector-curvature="0"
     style="fill:#ffffff" />
  <path
     d="M 57.9,44.8 H 32.4 L 20.9,90.6 h 25.8 l 1.7,-7.1 H 31.3 l 3.3,-13.1 h 14.6 l 1.8,-7 H 36.2 L 39,52 h 17 l 1.8,-7.2 z M 55.3,33.5 c -1,0 -2,0.6 -3.8,1.6 h -0.2 l -9,5.5 -1.3,0.8 h 1.5 l 2,0.3 h 0.1 l 10.3,-3.2 c 1.2,-0.3 2.4,-0.7 2.8,-2 a 2.3,2.3 0 0 0 -0.3,-1.8 2.3,2.3 0 0 0 -1.3,-1 2.7,2.7 0 0 0 -0.8,-0.1 z m 16.1,40.8 -4.5,0.3 H 65.6 L 63,85.4 h 8.5 l 2.8,-11.4 -3,0.3 z m -9.9,-34.6 -1.8,7 h 12.9 l -0.4,1.3 -5.8,23.5 1.3,-0.1 3.4,-0.3 4,-0.3 5.9,-24 h 12 l 1.5,-5.9 0.3,-1.1 z m 59.6,-0.2 a 21,21 0 0 0 -10.9,-3 14.9,14.9 0 0 0 -10.9,4.2 13.4,13.4 0 0 0 -3.8,9.3 13.2,13.2 0 0 0 4,9.3 41.8,41.8 0 0 0 3.1,3 24,24 0 0 1 2.8,2.9 10,10 0 0 1 0.6,0.9 h 0.1 l 2.8,-0.7 5.5,-1.6 a 15,15 0 0 0 -1.5,-2.3 32.8,32.8 0 0 0 -2.6,-2.8 l -1.4,-1.3 a 28.3,28.3 0 0 1 -2.1,-2 8.3,8.3 0 0 1 -2.7,-5.6 6.4,6.4 0 0 1 6.7,-6.4 11.9,11.9 0 0 1 8,3.5 l 0.7,0.6 0.2,-0.8 1.6,-6.5 V 40 l 0.1,-0.3 z m -5.6,27.3 a 87.9,87.9 0 0 1 -7.7,2.2 l -0.7,0.2 a 7.7,7.7 0 0 1 0,0.9 c 0,3.7 -2.3,7.4 -7.6,7.4 C 96,77.5 92.7,76 89.6,73 l -0.6,-0.5 -0.2,0.8 -1.7,7 -0.1,0.4 0.3,0.2 0.8,0.5 a 24,24 0 0 0 11.9,3 c 10.4,0 15.9,-7.3 15.9,-14.5 a 13.7,13.7 0 0 0 -0.4,-3 z"
     class="cls-3"
     id="path38"
     inkscape:connector-curvature="0"
     style="fill:#ffffff" />
  <path
     d="m 123.7,59.1 c 0,1 -3,3.7 -14.7,6.7 -10,2.6 -23.5,4.6 -37.8,5.7 l -19.3,1.3 h -0.2 l -0.3,2.3 h 0.2 C 54.7,75 68,74.1 71.3,73.8 a 270.8,270.8 0 0 0 28.6,-3.6 c 3.4,-0.7 6.7,-1.4 9.7,-2.2 11,-2.8 16.2,-5.7 16,-9 z"
     id="path40"
     inkscape:connector-curvature="0"
     style="fill:url(#linear-gradient-2)" />
</svg>
